:SAMPLES-PER-SECOND 30
:FULLY-SPECIFIED
:DEGREES
366
root  -83.7221 40.1438 0.117343 -176.901 38.9116 -178.248
RightUpLeg  -12.6635 -17.3108 3.80571
RightLeg  18.6094 -3.64528 -0.300035
RightFoot  -6.91247 0.178706 -5.82794
RightToes  -6.40286e-010 0 -3.6325e-017
Spine  6.16718 0.765386 4.89934
Spine1  1.29031 0.945931 0.352037
HEad  -19.9312 -23.0792 -0.15765
LeftShoulder1  -0.509278 4.87149 -31.0959
LeftArm  -3.91027 17.3197 -42.2475
LeftForeArm  29.2395 -14.3356 -6.09235
LeftHand  0.010732 8.66384 1.8589
RightShoulder  -0.978658 -6.25151 29.0437
RightArm  13.8104 3.89738 38.7159
RightForeArm  12.7556 8.36224 7.11883
RightHand  -0.178087 5.45238 -2.19979
LeftUpLeg  -6.58234 25.787 2.27783
LeftLeg  32.9609 19.2808 13.303
LeftFoot  -10.1547 0.0808617 -5.64329
LeftToes  1.32783e-010 1.73515e-011 1.59258e-011
367
root  -83.6826 40.0239 -0.0808244 -177.239 43.6964 -178.022
RightUpLeg  -12.1896 -14.5819 3.64334
RightLeg  18.9872 -1.22464 0.362884
RightFoot  -7.49589 0.167054 -6.45873
RightToes  -6.40286e-010 0 -3.6325e-017
Spine  6.64511 0.456266 5.02398
Spine1  1.44354 0.591364 1.00853
HEad  -17.9357 -19.5736 -0.136518
LeftShoulder1  -0.522447 4.90912 -30.9535
LeftArm  -4.88964 16.4418 -42.3555
LeftForeArm  31.4781 -13.16 -6.35093
LeftHand  -0.0358901 7.69239 0.382274
RightShoulder  -0.902399 -6.0811 28.4188
RightArm  14.497 5.19162 37.6832
RightForeArm  11.3493 9.5731 7.07745
RightHand  -0.23573 5.51063 -2.79269
LeftUpLeg  -9.6192 23.4863 2.36116
LeftLeg  40.5953 16.4093 14.8347
LeftFoot  -6.00797 0.0530682 0.0285522
LeftToes  1.32783e-010 1.73515e-011 1.59258e-011
368
root  -83.6726 39.9686 -0.369827 -177.702 48.768 -177.975
RightUpLeg  -11.9709 -11.3407 3.33167
RightLeg  19.8949 0.108551 0.797472
RightFoot  -7.64666 0.151021 -6.27161
RightToes  -6.40286e-010 0 -3.6325e-017
Spine  7.38619 0.527292 6.6107
Spine1  1.04069 1.09541 -0.191461
HEad  -15.5232 -16.9945 0.0495455
LeftShoulder1  -0.318864 4.3868 -30.0226
LeftArm  -3.75986 16.1812 -42.5056
LeftForeArm  31.2567 -13.639 -6.40418
LeftHand  -0.0403876 7.27911 -0.305572
RightShoulder  -1.03673 -6.40662 29.1815
RightArm  15.8605 5.10068 35.7566
RightForeArm  10.0987 12.6319 6.45835
RightHand  -0.119018 3.48016 -1.80917
LeftUpLeg  -10.932 20.3086 2.28899
LeftLeg  43.4765 10.3339 10.723
LeftFoot  -5.65298 0.0275515 0.0666029
LeftToes  1.32783e-010 1.73515e-011 1.59258e-011
369
root  -83.6997 40.0511 -0.68881 -178.362 53.5271 -178.505
RightUpLeg  -11.5902 -8.4613 2.66416
RightLeg  19.803 1.38576 1.24349
RightFoot  -7.04987 0.184407 -6.18443
RightToes  -6.40286e-010 0 -3.6325e-017
Spine  7.55111 0.470579 7.39763
Spine1  1.24857 1.2541 -0.655567
HEad  -13.3775 -14.5806 -0.267201
LeftShoulder1  -0.346036 4.45687 -30.1636
LeftArm  -3.61266 15.6854 -42.4193
LeftForeArm  30.7949 -14.8064 -5.87453
LeftHand  -0.0232559 5.60394 -0.269454
RightShoulder  -0.989047 -6.29433 28.8927
RightArm  16.543 5.36547 35.2906
RightForeArm  6.50269 13.9544 6.22136
RightHand  -0.204617 4.96696 -2.59825
LeftUpLeg  -11.4651 15.6489 1.48534
LeftLeg  42.8988 4.15584 4.55749
LeftFoot  -7.34606 0.0959885 -1.43715
LeftToes  1.32783e-010 1.73515e-011 1.59258e-011
370
root  -83.6161 40.169 -1.04688 -179.193 57.947 -179.188
RightUpLeg  -10.8488 -6.30358 2.21666
RightLeg  19.2716 3.08964 1.37512
RightFoot  -6.54515 0.198304 -5.7836
RightToes  -6.40286e-010 0 -3.6325e-017
Spine  6.85975 0.479106 8.10307
Spine1  2.2895 1.42669 -1.31907
HEad  -12.1145 -11.4118 -0.94777
LeftShoulder1  -0.383989 4.56045 -30.1954
LeftArm  -2.5647 15.2318 -42.8072
LeftForeArm  27.6416 -16.7194 -5.28196
LeftHand  0.0125343 7.80398 2.67307
RightShoulder  -0.960252 -6.23262 28.625
RightArm  16.9692 4.98162 35.1816
RightForeArm  4.57388 15.6023 5.75057
RightHand  -0.241853 5.88857 -2.81164
LeftUpLeg  -10.9202 10.6145 0.877931
LeftLeg  39.8562 2.7986 2.84744
LeftFoot  -8.15666 0.0890803 -1.44661
LeftToes  1.32783e-010 1.73515e-011 1.59258e-011
371
root  -83.4929 40.3463 -1.38716 179.762 61.8316 179.435
RightUpLeg  -10.0788 -4.72583 1.55294
RightLeg  17.8034 5.49602 1.39766
RightFoot  -5.82682 0.219698 -5.37446
RightToes  -6.40286e-010 0 -3.6325e-017
Spine  5.82141 0.564899 7.67175
Spine1  2.82764 1.38655 -1.20078
HEad  -10.8769 -8.54264 -1.93512
LeftShoulder1  -0.380052 4.55094 -30.1508
LeftArm  -1.2356 15.4202 -42.9714
LeftForeArm  23.2765 -19.2625 -4.48291
LeftHand  0.00304934 7.30033 2.30795
RightShoulder  -0.886337 -6.04453 28.3066
RightArm  17.2948 4.3 35.296
RightForeArm  4.24947 16.381 5.53429
RightHand  -0.241759 6.53543 -2.70663
LeftUpLeg  -10.0596 3.95418 0.151463
LeftLeg  34.6011 4.7986 3.88039
LeftFoot  -9.077 0.0762049 -1.03652
LeftToes  1.32783e-010 1.73515e-011 1.59258e-011
372
root  -83.3896 40.4754 -1.69705 178.461 65.9581 177.626
RightUpLeg  -9.94226 -3.59275 0.896534
RightLeg  16.9586 8.88067 1.52771
RightFoot  -5.36423 0.21982 -4.89551
RightToes  -6.40286e-010 0 -3.6325e-017
Spine  4.69045 0.814911 7.01056
Spine1  3.49672 1.49643 -1.10432
HEad  -10.5506 -5.18255 -3.00652
LeftShoulder1  -0.407814 4.62975 -30.0699
LeftArm  -0.376495 15.0868 -42.9209
LeftForeArm  21.7203 -21.3382 -4.02435
LeftHand  -0.0202781 5.98571 2.04514
RightShoulder  -0.904506 -6.11878 28.009
RightArm  17.3546 4.22173 35.9724
RightForeArm  4.17397 16.1404 5.63194
RightHand  -0.259642 7.29887 -2.80995
LeftUpLeg  -9.18363 -2.98428 -0.361761
LeftLeg  28.5173 7.32 4.61582
LeftFoot  -9.99799 0.0603085 -0.11885
LeftToes  1.32783e-010 1.73515e-011 1.59258e-011
373
root  -83.2479 40.5702 -1.99169 177.122 69.703 176.248
RightUpLeg  -9.08559 -2.98197 0.620724
RightLeg  15.4971 11.8942 1.47632
RightFoot  -4.97358 0.238619 -4.88838
RightToes  -6.40286e-010 0 -3.6325e-017
Spine  4.02683 0.924984 6.5212
Spine1  4.05692 1.51896 -1.13839
HEad  -10.4843 -2.01504 -3.71567
LeftShoulder1  -0.424539 4.67306 -30.161
LeftArm  -0.117058 14.517 -42.6111
LeftForeArm  21.2939 -23.3748 -3.90652
LeftHand  -0.01375 6.18832 2.49332
RightShoulder  -0.861235 -5.99313 27.9978
RightArm  16.9766 3.86349 36.6734
RightForeArm  4.77188 15.4738 5.7903
RightHand  -0.365839 5.16434 -4.30788
LeftUpLeg  -7.83498 -9.68493 -0.35843
LeftLeg  22.2371 7.84005 3.87586
LeftFoot  -10.5334 0.069527 -0.661928
LeftToes  1.32783e-010 1.73515e-011 1.59258e-011
374
root  -83.148 40.6077 -2.24321 176.352 73.3194 175.643
RightUpLeg  -8.63795 -2.38006 0.716208
RightLeg  14.9958 14.8494 1.57498
RightFoot  -4.69197 0.246135 -4.77757
RightToes  -6.40286e-010 0 -3.6325e-017
Spine  4.12214 1.20974 6.16175
Spine1  4.08724 1.72186 -0.835779
HEad  -10.7166 -0.773714 -3.42103
LeftShoulder1  -0.422274 4.67083 -30.0335
LeftArm  -0.534298 13.1999 -42.6629
LeftForeArm  21.9376 -24.4366 -4.06595
LeftHand  -0.0107968 6.25787 2.48674
RightShoulder  -0.934825 -6.14428 28.8373
RightArm  16.258 3.56448 36.7017
RightForeArm  6.62073 14.2583 6.01574
RightHand  -0.203553 6.20026 -2.36549
LeftUpLeg  -6.50145 -13.4191 0.026876
LeftLeg  16.4853 3.79587 1.67067
LeftFoot  -9.54539 0.058845 -0.60414
LeftToes  1.32783e-010 1.73515e-011 1.59258e-011
375
root  -83.0812 40.6275 -2.40956 176.828 75.8946 176.097
RightUpLeg  -8.51368 -1.17247 1.02568
RightLeg  14.6578 16.129 1.50008
RightFoot  -4.61161 0.235331 -4.5284
RightToes  -6.40286e-010 0 -3.6325e-017
Spine  4.25986 1.0613 4.88305
Spine1  3.75139 1.27145 0.261872
HEad  -11.5763 -0.993886 -2.67208
LeftShoulder1  -0.420633 4.66983 -29.9186
LeftArm  -0.78065 11.7754 -42.7394
LeftForeArm  22.0049 -25.0553 -4.20281
LeftHand  0.0246126 7.12012 3.95316
RightShoulder  -0.951231 -6.16088 29.2391
RightArm  14.7285 3.34095 37.5893
RightForeArm  9.17216 11.7192 6.48849
RightHand  -0.187135 6.47845 -2.15287
LeftUpLeg  -6.2345 -10.3293 0.609167
LeftLeg  14.3084 -2.14051 0.0518805
LeftFoot  -7.89172 0.012274 1.21999
LeftToes  1.32783e-010 1.73515e-011 1.59258e-011
376
root  -83.0012 40.6348 -2.55444 176.869 78.9103 176.385
RightUpLeg  -8.32246 1.16357 1.31457
RightLeg  14.5883 16.9546 1.59626
RightFoot  -4.54427 0.211051 -4.06901
RightToes  -6.40286e-010 0 -3.6325e-017
Spine  4.32862 1.13217 3.40203
Spine1  3.8464 1.08265 1.28097
HEad  -8.78174 3.57792 -2.75783
LeftShoulder1  -0.419963 4.66182 -30.1462
LeftArm  -1.4433 11.2502 -42.1922
LeftForeArm  22.8688 -26.8626 -4.54795
LeftHand  0.0200504 7.00116 3.82168
RightShoulder  -0.966593 -6.16647 29.7171
RightArm  13.0445 2.97486 38.7713
RightForeArm  12.7015 9.12721 6.63684
RightHand  -0.0504809 5.72134 -0.870796
LeftUpLeg  -5.03368 -2.51983 1.18468
LeftLeg  13.7629 -6.25182 -0.922494
LeftFoot  -8.72079 0.0401499 0.518502
LeftToes  1.32783e-010 1.73515e-011 1.59258e-011
377
root  -82.9561 40.7213 -2.65637 172.602 80.5194 172.217
RightUpLeg  -8.03434 5.10098 0.530771
RightLeg  14.275 14.7121 1.09488
RightFoot  -4.76609 0.14257 -3.04162
RightToes  -6.40286e-010 0 -3.6325e-017
Spine  4.68376 0.784714 0.749461
Spine1  3.70849 0.447384 2.08461
HEad  -9.12164 3.10039 -1.98262
LeftShoulder1  -0.335227 4.41862 -30.5156
LeftArm  -0.832771 9.97284 -41.3134
LeftForeArm  22.4639 -27.6625 -4.74783
LeftHand  0.00668017 6.67725 3.51548
RightShoulder  -1.08882 -6.42929 30.6865
RightArm  12.0971 2.19351 39.8136
RightForeArm  13.7258 7.15044 6.54191
RightHand  -0.122797 4.64465 -1.70653
LeftUpLeg  -3.43265 1.54926 0.422052
LeftLeg  11.4348 -8.63512 -0.727787
LeftFoot  -7.58123 0.0187213 0.850246
LeftToes  1.32783e-010 1.73515e-011 1.59258e-011
378
root  -82.8957 40.7016 -2.77811 168.808 82.3132 168.37
RightUpLeg  -8.6201 8.88047 -0.233248
RightLeg  15.3232 11.6997 1.35831
RightFoot  -5.6471 0.0956775 -2.68366
RightToes  -6.40286e-010 0 -3.6325e-017
Spine  4.78079 0.510753 -0.319789
Spine1  3.69618 0.156343 1.90462
HEad  -11.684 0.0422715 -0.508838
LeftShoulder1  -0.422626 4.67311 -29.9743
LeftArm  0.0600946 8.22996 -41.7178
LeftForeArm  22.2661 -27.3168 -4.68213
LeftHand  -0.0117837 5.9008 3.31031
RightShoulder  -1.11468 -6.50427 30.6186
RightArm  10.9203 -0.250575 41.9344
RightForeArm  14.5296 6.3921 6.07197
RightHand  -0.165684 4.1334 -2.28084
LeftUpLeg  -2.92322 2.21223 0.00868834
LeftLeg  11.0237 -7.61316 -0.468366
LeftFoot  -7.79581 0.0292762 0.709626
LeftToes  1.32783e-010 1.73515e-011 1.59258e-011
